<svg width="1728" height="1117" viewBox="0 0 1728 1117" fill="none" xmlns="http://www.w3.org/2000/svg">
<mask id="path-1-inside-1_230_244" fill="white">
<path d="M903.949 -899L1034.87 -768.074L-466.073 732.874L-596.999 601.948L903.949 -899Z"/>
</mask>
<path d="M1034.87 -768.074L1034.17 -768.781L-466.78 732.167L-466.073 732.874L-465.366 733.581L1035.58 -767.367L1034.87 -768.074ZM-596.999 601.948L-596.292 602.655L904.656 -898.293L903.949 -899L903.242 -899.707L-597.706 601.241L-596.999 601.948Z" fill="#343536" mask="url(#path-1-inside-1_230_244)"/>
<mask id="path-3-inside-2_230_244" fill="white">
<path d="M1034.87 -768.074L1165.8 -637.148L-335.148 863.8L-466.074 732.874L1034.87 -768.074Z"/>
</mask>
<path d="M1165.8 -637.148L1165.09 -637.855L-335.856 863.093L-335.148 863.8L-334.441 864.507L1166.51 -636.441L1165.8 -637.148ZM-466.074 732.874L-465.367 733.582L1035.58 -767.367L1034.87 -768.074L1034.17 -768.781L-466.781 732.167L-466.074 732.874Z" fill="#343536" mask="url(#path-3-inside-2_230_244)"/>
<mask id="path-5-inside-3_230_244" fill="white">
<path d="M1165.8 -637.148L1296.73 -506.222L-204.222 994.726L-335.148 863.8L1165.8 -637.148Z"/>
</mask>
<path d="M1296.73 -506.222L1296.02 -506.929L-204.929 994.019L-204.222 994.726L-203.515 995.433L1297.43 -505.515L1296.73 -506.222ZM-335.148 863.8L-334.44 864.507L1166.51 -636.441L1165.8 -637.148L1165.09 -637.855L-335.855 863.093L-335.148 863.8Z" fill="#343536" mask="url(#path-5-inside-3_230_244)"/>
<mask id="path-7-inside-4_230_244" fill="white">
<path d="M1296.73 -506.222L1427.65 -375.296L-73.2959 1125.65L-204.222 994.726L1296.73 -506.222Z"/>
</mask>
<path d="M1427.65 -375.296L1426.95 -376.004L-74.003 1124.94L-73.2959 1125.65L-72.5888 1126.36L1428.36 -374.589L1427.65 -375.296ZM-204.222 994.726L-203.515 995.433L1297.43 -505.515L1296.73 -506.222L1296.02 -506.929L-204.929 994.019L-204.222 994.726Z" fill="#343536" mask="url(#path-7-inside-4_230_244)"/>
<mask id="path-9-inside-5_230_244" fill="white">
<path d="M1427.65 -375.296L1558.58 -244.37L57.6299 1256.58L-73.296 1125.65L1427.65 -375.296Z"/>
</mask>
<path d="M1558.58 -244.37L1557.87 -245.078L56.9228 1255.87L57.6299 1256.58L58.337 1257.28L1559.29 -243.663L1558.58 -244.37ZM-73.296 1125.65L-72.5889 1126.36L1428.36 -374.589L1427.65 -375.296L1426.95 -376.003L-74.0031 1124.94L-73.296 1125.65Z" fill="#343536" mask="url(#path-9-inside-5_230_244)"/>
<mask id="path-11-inside-6_230_244" fill="white">
<path d="M1558.58 -244.37L1689.5 -113.445L188.555 1387.5L57.6294 1256.58L1558.58 -244.37Z"/>
</mask>
<path d="M1689.5 -113.445L1688.8 -114.152L187.848 1386.8L188.555 1387.5L189.262 1388.21L1690.21 -112.737L1689.5 -113.445ZM57.6294 1256.58L58.3365 1257.28L1559.28 -243.663L1558.58 -244.37L1557.87 -245.077L56.9223 1255.87L57.6294 1256.58Z" fill="#343536" mask="url(#path-11-inside-6_230_244)"/>
<mask id="path-13-inside-7_230_244" fill="white">
<path d="M1820.43 17.4815L1951.36 148.407L450.407 1649.36L319.482 1518.43L1820.43 17.4815Z"/>
</mask>
<path d="M1951.36 148.407L1950.65 147.7L449.7 1648.65L450.407 1649.36L451.115 1650.06L1952.06 149.115L1951.36 148.407ZM319.482 1518.43L320.189 1519.14L1821.14 18.1886L1820.43 17.4815L1819.72 16.7744L318.774 1517.72L319.482 1518.43Z" fill="#343536" mask="url(#path-13-inside-7_230_244)"/>
<mask id="path-15-inside-8_230_244" fill="white">
<path d="M2083.12 280.167L2214.04 411.093L713.094 1912.04L582.168 1781.12L2083.12 280.167Z"/>
</mask>
<path d="M2214.04 411.093L2213.33 410.386L712.387 1911.33L713.094 1912.04L713.801 1912.75L2214.75 411.8L2214.04 411.093ZM582.168 1781.12L582.875 1781.82L2083.82 280.874L2083.12 280.167L2082.41 279.46L581.461 1780.41L582.168 1781.12Z" fill="#343536" mask="url(#path-15-inside-8_230_244)"/>
<mask id="path-17-inside-9_230_244" fill="white">
<path d="M1689.5 -113.445L1820.43 17.4813L319.482 1518.43L188.556 1387.5L1689.5 -113.445Z"/>
</mask>
<path d="M1820.43 17.4813L1819.72 16.7742L318.775 1517.72L319.482 1518.43L320.189 1519.14L1821.14 18.1884L1820.43 17.4813ZM188.556 1387.5L189.263 1388.21L1690.21 -112.737L1689.5 -113.445L1688.8 -114.152L187.849 1386.8L188.556 1387.5Z" fill="#343536" mask="url(#path-17-inside-9_230_244)"/>
<mask id="path-19-inside-10_230_244" fill="white">
<path d="M1951.36 148.407L2082.28 279.333L581.333 1780.28L450.407 1649.36L1951.36 148.407Z"/>
</mask>
<path d="M2082.28 279.333L2081.57 278.626L580.626 1779.57L581.333 1780.28L582.04 1780.99L2082.99 280.04L2082.28 279.333ZM450.407 1649.36L451.114 1650.06L1952.06 149.114L1951.36 148.407L1950.65 147.7L449.7 1648.65L450.407 1649.36Z" fill="#343536" mask="url(#path-19-inside-10_230_244)"/>
<mask id="path-21-inside-11_230_244" fill="white">
<path d="M2214.04 411.093L2344.97 542.019L844.019 2042.97L713.093 1912.04L2214.04 411.093Z"/>
</mask>
<path d="M2344.97 542.019L2344.26 541.312L843.312 2042.26L844.019 2042.97L844.726 2043.67L2345.67 542.726L2344.97 542.019ZM713.093 1912.04L713.8 1912.75L2214.75 411.8L2214.04 411.093L2213.33 410.386L712.386 1911.33L713.093 1912.04Z" fill="#343536" mask="url(#path-21-inside-11_230_244)"/>
</svg>
